<svg id="Image_Place_Holder_-_Property_Image" data-name="Image Place Holder - Property Image" xmlns="http://www.w3.org/2000/svg" width="690" height="356" viewBox="0 0 690 356">
  <rect id="NoPath_-_Copy_2_" data-name="NoPath - Copy (2)" width="690" height="356" rx="12" fill="#f2f4f7"/>
  <g id="Group_112419" data-name="Group 112419" transform="translate(26 93.845)">
    <g id="Group_112416" data-name="Group 112416">
      <path id="Path_100530" data-name="Path 100530" d="M74.716,213.571S293.469,46.787,337.4,46.787c21.8,0,69.122,78.467,106.151,119.852,56.21-19.457,84.429-36.46,109.756-36.46,28.379,0,125.762,83.392,125.762,83.392Z" transform="translate(-55.341 -46.787)" fill="#f8f9fa" stroke="#e9ecef" stroke-width="1"/>
      <path id="Path_100531" data-name="Path 100531" d="M502.345,96.443H313.667s73.2-4.64,76.811-8.248c0,0,3.609-15.4,17.012-6.315,0,0-3.608-14.822,9.28-18.946,10.805-3.458,17.527,5.671,17.527,5.671s1.547-22.683,21.652-19.074,11.857,23.261,11.857,23.261,10.826-5.218,16.8,2.515c5.887,7.617,0,16.691,0,16.691Z" transform="translate(5.901 -46.827)" fill="#e9ecef"/>
      <g id="Group_112409" data-name="Group 112409" transform="translate(124.46 42.786)">
        <path id="Path_100532" data-name="Path 100532" d="M139.249,194.781c-46.637,0-13.614-104.461,0-104.461S185.885,194.781,139.249,194.781Z" transform="translate(-115.153 -90.32)" fill="#dee2e6"/>
        <g id="Group_112420" data-name="Group 112420" transform="translate(3.037 5.059)">
          <line id="Line_2007" data-name="Line 2007" y1="118.94" transform="translate(21.418)" fill="none" stroke="#ced4da" stroke-linecap="round" stroke-linejoin="round" stroke-width="2.169"/>
          <line id="Line_2008" data-name="Line 2008" x2="21.419" y2="6.608" transform="translate(0 65.494)" fill="none" stroke="#ced4da" stroke-linecap="round" stroke-linejoin="round" stroke-width="2.169"/>
          <line id="Line_2009" data-name="Line 2009" x2="14.345" y2="4.426" transform="translate(7.074 36.748)" fill="none" stroke="#ced4da" stroke-linecap="round" stroke-linejoin="round" stroke-width="2.169"/>
          <line id="Line_2010" data-name="Line 2010" y1="9.232" x2="20.176" transform="translate(21.418 46.485)" fill="none" stroke="#ced4da" stroke-linecap="round" stroke-linejoin="round" stroke-width="2.169"/>
          <line id="Line_2011" data-name="Line 2011" x1="3.968" y2="8.409" transform="translate(34.825 41.173)" fill="none" stroke="#ced4da" stroke-linecap="round" stroke-linejoin="round" stroke-width="2.169"/>
        </g>
      </g>
      <path id="Path_100533" data-name="Path 100533" d="M176.973,216.215a7.2,7.2,0,0,0-10.33-5.2,15.493,15.493,0,0,0-22.083-7.639,10.48,10.48,0,0,0-17.238,6.933,7.157,7.157,0,0,0-8.013,5.9Z" transform="translate(9.236 -49.431)" fill="#adb5bd"/>
      <path id="Path_100534" data-name="Path 100534" d="M453.54,216.215a7.2,7.2,0,0,0-10.33-5.2,15.493,15.493,0,0,0-22.083-7.639,10.48,10.48,0,0,0-17.238,6.933,7.158,7.158,0,0,0-8.014,5.9Z" transform="translate(4.491 -49.431)" fill="#adb5bd"/>
      <path id="Path_100535" data-name="Path 100535" d="M540.994,216.188a7.93,7.93,0,0,0-11.384-5.729,17.075,17.075,0,0,0-24.337-8.419,11.55,11.55,0,0,0-19,7.641,7.885,7.885,0,0,0-8.831,6.507Z" transform="translate(3.091 -49.403)" fill="#dee2e6"/>
      <path id="Path_100536" data-name="Path 100536" d="M410.173,162.258,297.065,122.564v92.307H410.173Z" transform="translate(6.186 -48.087)" fill="#e9ecef"/>
      <path id="Path_100537" data-name="Path 100537" d="M303.9,124.962l-6.831-2.4v92.307H303.9Z" transform="translate(6.186 -48.087)" fill="#6c757d"/>
      <path id="Path_100538" data-name="Path 100538" d="M297.065,128.8l113.109,40.416v-6.956L297.065,122.564Z" transform="translate(6.186 -48.087)" fill="#6c757d"/>
      <path id="Path_100539" data-name="Path 100539" d="M293.991,123.51,420,168.535V156.951L293.991,111.926Z" transform="translate(6.239 -47.905)" fill="#adb5bd"/>
      <path id="Path_100540" data-name="Path 100540" d="M298.028,214.324H153.377V151.911L298.028,90.677Z" transform="translate(8.651 -47.54)" fill="#e9ecef"/>
      <path id="Path_100541" data-name="Path 100541" d="M153.377,157.916l144.651-62.2v-5.04L153.377,151.911Z" transform="translate(8.651 -47.54)" fill="#6c757d"/>
      <g id="Group_112410" data-name="Group 112410" transform="translate(162.028 80.382)">
        <rect id="Rectangle_57307" data-name="Rectangle 57307" width="15.793" height="5.818" rx="1.128" transform="translate(157.539 18.539)" fill="#6c757d"/>
        <rect id="Rectangle_57308" data-name="Rectangle 57308" width="15.793" height="5.818" rx="1.128" transform="translate(67.92 18.539)" fill="#6c757d"/>
        <path id="Path_100542" data-name="Path 100542" d="M159.617,208.027h-6.24v5.818h6.24a1.109,1.109,0,0,0,1.109-1.11v-3.6A1.109,1.109,0,0,0,159.617,208.027Z" transform="translate(-153.377 -129.936)" fill="#6c757d"/>
        <rect id="Rectangle_57309" data-name="Rectangle 57309" width="15.793" height="5.818" rx="1.128" transform="translate(116.254)" fill="#6c757d"/>
        <rect id="Rectangle_57310" data-name="Rectangle 57310" width="15.793" height="5.818" rx="1.128" transform="translate(149.643 25.894)" fill="#6c757d"/>
      </g>
      <path id="Path_100543" data-name="Path 100543" d="M302.939,90.173,148.645,156.518V144.934L302.939,78.589Z" transform="translate(8.732 -47.333)" fill="#adb5bd"/>
      <g id="Group_112411" data-name="Group 112411" transform="translate(172.652 112.983)">
        <rect id="Rectangle_57311" data-name="Rectangle 57311" width="61.218" height="37.764" transform="translate(3.975)" fill="#ced4da"/>
        <rect id="Rectangle_57312" data-name="Rectangle 57312" width="57.745" height="34.125" transform="translate(5.711 1.82)" fill="#f8f9fa"/>
        <rect id="Rectangle_57313" data-name="Rectangle 57313" width="1.531" height="36.795" transform="translate(24.927 0.969)" fill="#ced4da"/>
        <rect id="Rectangle_57314" data-name="Rectangle 57314" width="1.531" height="36.795" transform="translate(42.71 0.969)" fill="#ced4da"/>
        <rect id="Rectangle_57315" data-name="Rectangle 57315" width="68.373" height="5.963" transform="translate(0 34.783)" fill="#adb5bd"/>
      </g>
      <rect id="Rectangle_57316" data-name="Rectangle 57316" width="35.777" height="63.739" transform="translate(262.094 103.045)" fill="#6c757d"/>
      <rect id="Rectangle_57317" data-name="Rectangle 57317" width="30.044" height="57.833" transform="translate(264.76 106.25)" fill="#dee2e6"/>
      <circle id="Ellipse_129953" data-name="Ellipse 129953" cx="2.168" cy="2.168" r="2.168" transform="translate(287.68 134.746)" fill="#6c757d"/>
      <rect id="Rectangle_57318" data-name="Rectangle 57318" width="42.283" height="5.401" transform="translate(257.946 161.383)" fill="#adb5bd"/>
      <path id="Path_100546" data-name="Path 100546" d="M247.229,216.255a6.121,6.121,0,0,0-8.785-4.422,13.178,13.178,0,0,0-18.781-6.5,8.913,8.913,0,0,0-14.66,5.9,6.336,6.336,0,0,0-.777-.054,6.132,6.132,0,0,0-6.038,5.076Z" transform="translate(7.882 -49.471)" fill="#adb5bd"/>
      <g id="Group_112412" data-name="Group 112412" transform="translate(323.251 115.612)">
        <rect id="Rectangle_57319" data-name="Rectangle 57319" width="74.437" height="51.172" fill="#6c757d"/>
        <rect id="Rectangle_57320" data-name="Rectangle 57320" width="70.011" height="49.097" transform="translate(2.213 2.076)" fill="#dee2e6"/>
        <line id="Line_2012" data-name="Line 2012" x2="70.011" transform="translate(2.213 6.327)" fill="none" stroke="#adb5bd" stroke-miterlimit="10" stroke-width="0.789" opacity="0.3"/>
        <line id="Line_2013" data-name="Line 2013" x2="70.011" transform="translate(2.213 12.654)" fill="none" stroke="#adb5bd" stroke-miterlimit="10" stroke-width="0.789" opacity="0.3"/>
        <line id="Line_2014" data-name="Line 2014" x2="70.011" transform="translate(2.213 18.981)" fill="none" stroke="#adb5bd" stroke-miterlimit="10" stroke-width="0.789" opacity="0.3"/>
        <line id="Line_2015" data-name="Line 2015" x2="70.011" transform="translate(2.213 25.309)" fill="none" stroke="#adb5bd" stroke-miterlimit="10" stroke-width="0.789" opacity="0.3"/>
        <line id="Line_2016" data-name="Line 2016" x2="70.011" transform="translate(2.213 31.636)" fill="none" stroke="#adb5bd" stroke-miterlimit="10" stroke-width="0.789" opacity="0.3"/>
        <line id="Line_2017" data-name="Line 2017" x2="70.011" transform="translate(2.213 37.963)" fill="none" stroke="#adb5bd" stroke-miterlimit="10" stroke-width="0.789" opacity="0.3"/>
        <line id="Line_2018" data-name="Line 2018" x2="70.011" transform="translate(2.213 44.29)" fill="none" stroke="#adb5bd" stroke-miterlimit="10" stroke-width="0.789" opacity="0.3"/>
      </g>
      <line id="Line_2019" data-name="Line 2019" x2="639.138" transform="translate(0 166.784)" fill="none" stroke="#dee2e6" stroke-linecap="round" stroke-linejoin="round" stroke-width="2.169"/>
      <g id="Group_112414" data-name="Group 112414" transform="translate(463.549 74.477)">
        <ellipse id="Ellipse_129954" data-name="Ellipse 129954" cx="28.315" cy="36.385" rx="28.315" ry="36.385" fill="#adb5bd"/>
        <g id="Group_112413" data-name="Group 112413" transform="translate(15.93 17.849)" opacity="0.25">
          <line id="Line_2020" data-name="Line 2020" y2="74.458" transform="translate(12.385)" fill="none" stroke="#6c757d" stroke-linecap="round" stroke-linejoin="round" stroke-width="2.169"/>
          <line id="Line_2021" data-name="Line 2021" y1="6.305" x2="17.504" transform="translate(12.385 32.902)" fill="none" stroke="#6c757d" stroke-linecap="round" stroke-linejoin="round" stroke-width="2.169"/>
          <line id="Line_2022" data-name="Line 2022" y1="4.212" x2="11.693" transform="translate(12.385 4.025)" fill="none" stroke="#6c757d" stroke-linecap="round" stroke-linejoin="round" stroke-width="2.169"/>
          <line id="Line_2023" data-name="Line 2023" x1="12.385" y1="12.385" transform="translate(0 14.064)" fill="none" stroke="#6c757d" stroke-linecap="round" stroke-linejoin="round" stroke-width="2.169"/>
        </g>
      </g>
      <g id="Group_112415" data-name="Group 112415" transform="translate(433.935 42.786)">
        <path id="Path_100547" data-name="Path 100547" d="M454.126,194.781c-46.636,0-13.614-104.461,0-104.461S500.762,194.781,454.126,194.781Z" transform="translate(-430.03 -90.32)" fill="#dee2e6"/>
        <line id="Line_2024" data-name="Line 2024" y1="113.881" transform="translate(24.096 10.117)" fill="none" stroke="#ced4da" stroke-linecap="round" stroke-linejoin="round" stroke-width="2.169"/>
        <line id="Line_2025" data-name="Line 2025" x2="18.021" y2="6.327" transform="translate(6.075 72.825)" fill="none" stroke="#ced4da" stroke-linecap="round" stroke-linejoin="round" stroke-width="2.169"/>
        <line id="Line_2026" data-name="Line 2026" x2="12.069" y2="4.237" transform="translate(12.027 45.303)" fill="none" stroke="#ced4da" stroke-linecap="round" stroke-linejoin="round" stroke-width="2.169"/>
        <line id="Line_2027" data-name="Line 2027" y1="8.839" x2="16.975" transform="translate(24.096 54.625)" fill="none" stroke="#ced4da" stroke-linecap="round" stroke-linejoin="round" stroke-width="2.169"/>
        <line id="Line_2028" data-name="Line 2028" x1="3.339" y2="8.051" transform="translate(35.375 49.54)" fill="none" stroke="#ced4da" stroke-linecap="round" stroke-linejoin="round" stroke-width="2.169"/>
      </g>
      <circle id="Ellipse_129955" data-name="Ellipse 129955" cx="9.752" cy="9.752" r="9.752" transform="translate(183.322 37.226)" fill="#adb5bd"/>
    </g>
  </g>
</svg>
